<svg id="Group_48756" data-name="Group 48756" xmlns="http://www.w3.org/2000/svg" xmlns:xlink="http://www.w3.org/1999/xlink" width="400" height="400" viewBox="0 0 400 400">
  <defs>
    <clipPath id="clip-path">
      <rect id="Rectangle_47027" data-name="Rectangle 47027" width="400" height="400" fill="none"/>
    </clipPath>
    <clipPath id="clip-path-3">
      <rect id="Rectangle_47025" data-name="Rectangle 47025" width="139.475" height="154.053" fill="none"/>
    </clipPath>
  </defs>
  <g id="Group_48754" data-name="Group 48754" clip-path="url(#clip-path)">
    <g id="Group_48753" data-name="Group 48753">
      <g id="Group_48752" data-name="Group 48752" clip-path="url(#clip-path)">
        <path id="Path_19236" data-name="Path 19236" d="M200,400h0C89.543,400,0,310.457,0,200S89.543,0,200,0h0C310.457,0,400,89.543,400,200S310.457,400,200,400" fill="#0082e6" opacity="0"/>
        <path id="Path_19237" data-name="Path 19237" d="M450.949,365.992c-25.423-2.859-83.864,15.622-84.869,13.148-.232-.7,1.005-15.377,2.936-35.855,4.868-50.073,13.678-134.919,13.678-134.919,19.009-7.8,40.027-10.74,65.914-5.872,25.809,4.868,58.033,12.209,65.373,64.908s-42.632,100.984-63.031,98.589" transform="translate(-183.026 -100.06)" fill="#372873"/>
        <g id="Group_48751" data-name="Group 48751" transform="translate(185.425 124.177)" style="mix-blend-mode: multiply;isolation: isolate">
          <g id="Group_48750" data-name="Group 48750">
            <g id="Group_48749" data-name="Group 48749" clip-path="url(#clip-path-3)">
              <path id="Path_19238" data-name="Path 19238" d="M495.5,369.328c-15.531,3.09-18.779,35.348-39.179,32.953-25.422-2.859-81.986-22.408-82.991-24.881-.232-.7-3.85,10.482-1.919-10l72.25-118.846c5.332-.464,58.033-3.4,65.374,42.5,6.413,40.027-13.226,57.174-13.535,78.27" transform="translate(-370.85 -248.355)" fill="#372873"/>
            </g>
          </g>
        </g>
        <path id="Path_19239" data-name="Path 19239" d="M514.7,399.756a66.553,66.553,0,1,1-58.031-74.1,66.552,66.552,0,0,1,58.031,74.1" transform="translate(-191.036 -162.581)" fill="#fac8b4"/>
        <path id="Path_19240" data-name="Path 19240" d="M467.169,329.506a82.7,82.7,0,1,1-72.113-92.081,82.7,82.7,0,0,1,72.113,92.081" transform="translate(-151.181 -118.406)" fill="#fac8b4"/>
        <path id="Path_19241" data-name="Path 19241" d="M614.68,359.842c1.3,8.914-8.3,24.158-18.069,25.628-5.939.892-7.865-16.69-9.525-22.03-2.466-7.935-3.929-15.972-5.758-24.049-1.015-4.484-.223-11.554-1.164-14.919a88.881,88.881,0,0,0,3.936,10.812c1.988,4.64,11.853,15.475,16.427,17.97,8.053,4.392,13.769,3.96,14.154,6.589" transform="translate(-290.082 -162.236)" fill="#fac8b4"/>
        <path id="Path_19242" data-name="Path 19242" d="M521.612,388.059c-.406-4.582-3.335-11.414-10.411-9.706-5.477,1.322-4.483,8.157-.355,12.4,4.76,4.888,11.185,2.017,10.767-2.691" transform="translate(-253.709 -189.042)" fill="#372873"/>
        <path id="Path_19243" data-name="Path 19243" d="M613.185,363.2c-.331-4.575-2.72-11.4-8.491-9.692-4.466,1.32-3.655,8.145-.289,12.378,3.882,4.88,9.121,2.013,8.78-2.686" transform="translate(-300.805 -176.621)" fill="#372873"/>
        <path id="Path_19244" data-name="Path 19244" d="M493.473,337.436c-1.34-2.175-4.463-2.521-6.76-2.836a26.623,26.623,0,0,0-13.98,2.03,27.212,27.212,0,0,0-3.074,1.832,16.188,16.188,0,0,0-2.057.723q-2.855,1.321-5.58,2.912c-3.045,1.779-7.912,4.849-6.621,9.083a2.628,2.628,0,0,0,3.816,1.65c9.491-4.861,20.284-5.725,30.336-8.823a7.345,7.345,0,0,0,3.528-1.913,3.912,3.912,0,0,0,.393-4.659" transform="translate(-227.593 -167.188)" fill="#372873"/>
        <path id="Path_19245" data-name="Path 19245" d="M618.513,361.981c-.966-.91-1.988-.976-3.234-1.232-1.315-.271-2.561-.517-3.9-.661a41.969,41.969,0,0,1-7.119-1.362c-3.8-1.1-7.716-2.708-10.335-5.8a18.78,18.78,0,0,1-3.964-9.286c-.565-3.618.452-6.883,1.1-10.385a.823.823,0,0,0-1.309-.735,6.866,6.866,0,0,0-2.083,2.211,17.4,17.4,0,0,0-1.21,2.965,20.626,20.626,0,0,0-.909,6.011,19.116,19.116,0,0,0,4.345,12.094c3.18,3.889,7.794,6.2,12.539,7.6a49.515,49.515,0,0,0,8.375,1.72c2.5.286,6.09.348,7.924-1.615a1.109,1.109,0,0,0-.219-1.521" transform="translate(-292.775 -166.182)" fill="#f59d7f"/>
        <path id="Path_19246" data-name="Path 19246" d="M598.831,319.753a3.089,3.089,0,0,0-1.313-.695,11.265,11.265,0,0,0-4.4-3.709,11.826,11.826,0,0,0-9.042.232,9.29,9.29,0,0,0-4.1,3.4,5.353,5.353,0,0,0,.386,6.182,6.823,6.823,0,0,0,5.1,2.086c2.008,0,3.786-.85,5.718-1.083a12.309,12.309,0,0,1,2.781.31,5.647,5.647,0,0,0,4.018-.85c1.622-1.236,2.4-4.249.849-5.873" transform="translate(-289.59 -157.278)" fill="#372873"/>
        <path id="Path_19247" data-name="Path 19247" d="M598.525,433.377a5.3,5.3,0,0,0-1.981.683,9.9,9.9,0,0,1-1.043.679,8.263,8.263,0,0,1-2.586.638c-2.68.344-5.411.409-8.106.59-2.879.2-5.788.527-8.674.569a10.091,10.091,0,0,1-6.876-1.982c-1.825-1.45-4.414,1.134-2.894,2.945a12.562,12.562,0,0,0,8.18,4.606c3.523.334,7.258-.219,10.784-.4a78.576,78.576,0,0,0,9.509-.643,12.033,12.033,0,0,0,4.04-1.4,4.248,4.248,0,0,0,2.375-4.237,2.417,2.417,0,0,0-2.729-2.042" transform="translate(-282.953 -216.67)" fill="#f59d7f"/>
        <path id="Path_19248" data-name="Path 19248" d="M393.334,235.09s-16.105,44.411-50.267,68.326-33.187,25.866-33.187,25.866,15.689,39.936,29.771,52.22c22.938,20.01,18.545,56.124,14.641,56.124s-41.483-6.832-68.814-20.985-31.234-28.8-33.674-33.675-19.521-60.03-22.937-81.5,6.253-59.318,57.588-83.943c60.029-28.794,98.585-16.593,107.369-3.416s-.488,20.985-.488,20.985" transform="translate(-114.125 -99.953)" fill="#372873"/>
        <path id="Path_19249" data-name="Path 19249" d="M394.439,447.922c0,13.477,3.228,29.771-10.249,29.771s-38.556-16.294-38.556-29.771a24.4,24.4,0,0,1,48.8,0" transform="translate(-172.817 -211.76)" fill="#fac8b4"/>
        <path id="Path_19250" data-name="Path 19250" d="M235.25,212.565c6.588-8.652,22.177-33.892-5.118-65-20.589-23.465-79.749,1.856-90.837,39s7.25,66.389,29.426,70.568,39.663-9.285,66.53-44.569" transform="translate(-67.982 -69.252)" fill="#372873"/>
        <path id="Path_19251" data-name="Path 19251" d="M397.9,459.3a5.854,5.854,0,0,0-1.411-2.119c-.639-.546-1.385-1.007-2.065-1.5l-4.13-3a54.739,54.739,0,0,0-8.616-5.235c-2.7-1.28-6.086-2.338-9.105-1.819-3.874.665-4.289,5.188-5.208,8.3a2.977,2.977,0,0,0,1.643,3.755,2.924,2.924,0,0,0,3.755-1.642q.646-2.07,1.293-4.14c.363-.4.573-.4.662-.386A16.4,16.4,0,0,1,381.164,454c1.43.855,2.862,1.691,4.286,2.54a7.092,7.092,0,0,0-1.487,4.033,11.246,11.246,0,0,0-.043,3.972,5.235,5.235,0,0,0,1.025,2.22,2.96,2.96,0,0,0,2.809,1.087,3.3,3.3,0,0,0,1.488-.655,2.407,2.407,0,0,0,.445-3.275,2.727,2.727,0,0,0-.732-.987,3.387,3.387,0,0,1-.275-.549c-.183-1.114-.271-1.969-.414-2.815a6.492,6.492,0,0,0-.455-1.435c.111-.138.318,0,.54.124q1.775.979,3.552,1.955a8.245,8.245,0,0,0,4.218,1.466,1.743,1.743,0,0,0,1.779-2.38" transform="translate(-183.608 -222.748)" fill="#f59d7f"/>
        <path id="Path_19252" data-name="Path 19252" d="M412.485,482.872c-.013.044.1.294.161.579-.055-.193-.107-.386-.161-.579" transform="translate(-206.242 -241.436)" fill="#f59d7f"/>
        <path id="Path_19253" data-name="Path 19253" d="M251.687,384.786c-15.444,4.913-36.941-1.589-50.506-9.623-15.016-8.894-20.85-25.736-23.516-42.139-3.682-22.655.051-44.213,7.783-64.78,2.574-1.637,5.1-3.323,7.527-5.035a141.417,141.417,0,0,0,11.469-9.023c3.9-3.415,6.348-7.038,9.57-10.982,1.976-2.419-1.585-6.02-3.97-3.9-3.357,2.987-7.183,5.443-10.614,8.417-2.556,2.215-5.266,4.239-7.975,6.263,2.088-4.425,4.279-8.819,6.656-13.149.551-1-1.006-2.141-1.819-1.359a86.326,86.326,0,0,0-16.767,22.749,62.45,62.45,0,0,1-13.489,6.438c-9.883,3.122-18.991-.676-27.41-5.823-7.656-4.682-14.245-10.507-16.578-19.494-4.14-15.942,2.416-35.531,10.047-49.5,8.573-15.688,21.752-28.413,39.353-33.091a1.359,1.359,0,0,0-.389-2.689c-33.5,1.277-53.215,34.574-58.141,64.4-2.528,15.309.056,30.771,12.181,41.348,11.9,10.383,28.552,17.862,44.2,12.564,1.68-.569,3.324-1.289,4.964-2.023-8.044,22.4-8.7,47.973-2.89,70.25,4.682,17.943,13.73,32.5,30.915,40.581,14.221,6.689,38.029,15.206,51.487,3.159a2.094,2.094,0,0,0-2.087-3.565" transform="translate(-56.019 -79.034)" fill="#372873"/>
      </g>
    </g>
  </g>
</svg>
